<?xml version="1.0" standalone="no"?>
<!DOCTYPE svg PUBLIC "-//W3C//DTD SVG 20010904//EN"
 "http://www.w3.org/TR/2001/REC-SVG-20010904/DTD/svg10.dtd">
<svg version="1.0" xmlns="http://www.w3.org/2000/svg"
 width="108.000000pt" height="107.000000pt" viewBox="0 0 108.000000 107.000000"
 preserveAspectRatio="xMidYMid meet">

<g transform="translate(0.000000,107.000000) scale(0.100000,-0.100000)"
fill="#ffffff" stroke="none">
<path d="M38 1039 c23 -17 53 -50 67 -73 l25 -43 0 -404 c0 -233 -4 -419 -10
-438 -5 -19 -19 -45 -32 -58 l-21 -23 162 0 163 0 -31 26 c-17 14 -35 42 -41
62 -7 24 -10 143 -8 331 l3 294 192 -236 c208 -255 268 -338 304 -422 l24 -55
83 0 82 0 0 466 c0 491 3 533 46 579 l23 25 -162 0 c-149 0 -160 -1 -139 -16
51 -36 57 -63 60 -299 2 -121 2 -242 0 -268 l-3 -48 -250 315 -250 315 -164 1
-165 0 42 -31z"/>
</g>
</svg>
